<svg xmlns="http://www.w3.org/2000/svg" viewBox="0 0 1024 294">
  <g id="Group_139" data-name="Group 139" transform="translate(-680.689 -475.87)">
    <path id="Path_1" data-name="Path 1" d="M8.88,120.333l55.613-94.97S74.6-.147,102.059,0,226.182,0,226.182,0A41.2,41.2,0,0,1,261.5,21.751c11.658,22.209,61.051,100.842,61.051,100.842s8.362,18.051-4.311,17.97c-4.964-.031-141.506-.107-141.506-.107a13.439,13.439,0,0,1-5.571-.913,12.291,12.291,0,0,1-3.194-2.872L107.258,39.73a7.225,7.225,0,0,0-9.612-1.791C91.778,41.3,95.12,48.225,95.12,48.225l57.225,90.914c.163.286,3.23,5.526,3.23,5.526a9.822,9.822,0,0,1,1.23,3.061,4.342,4.342,0,0,1-.847,2.5c-1.1,2.041-3.679,6.077-6.372,10.821-9.036,16.174-42.271,63.026-53.572,83.087a8.128,8.128,0,0,0,1.617,11.352,7.781,7.781,0,0,0,11.2-3.546c.969-1.316,46.97-73.725,58.791-92.348a8.536,8.536,0,0,1,3.546-3.27,20.719,20.719,0,0,1,5.571-.76l141.506-.061s11.816-.24,4.311,15.225S261.5,272.553,261.5,272.553s-12.01,20.776-35.322,20.643-124.128,0-124.128,0-25.714,1.02-37.567-20.643S3.324,162.512,3.324,162.512A41.959,41.959,0,0,1,8.88,120.333Z" transform="translate(1005.951 769.073) rotate(180)" fill="#045193"/>
    <g id="Group_1" data-name="Group 1" transform="translate(1102.021 507.076)">
      <path id="Path_119" data-name="Path 119" d="M37.585,52.321A28.541,28.541,0,0,1,24.4,49.331a26.332,26.332,0,0,1-9.587-8.225,25.73,25.73,0,0,1-4.556-12.168V8.949A25.51,25.51,0,0,1,14.881-3.363a25.571,25.571,0,0,1,9.725-8.092A29.474,29.474,0,0,1,37.59-14.312,29.4,29.4,0,0,1,53.5-9.893,32.021,32.021,0,0,1,64.723,2.071a34.842,34.842,0,0,1,4.148,17.066,34.633,34.633,0,0,1-4.082,16.837,31.454,31.454,0,0,1-11.225,11.9A29.74,29.74,0,0,1,37.585,52.321Zm-1.633-9.112a23.041,23.041,0,0,0,11.964-3.061,21.373,21.373,0,0,0,8.092-8.566A26.413,26.413,0,0,0,58.932,19,26.311,26.311,0,0,0,56.009,6.357,21.975,21.975,0,0,0,47.917-2.21,22.393,22.393,0,0,0,36.085-5.337,22.041,22.041,0,0,0,24.325-2.21a21.643,21.643,0,0,0-7.954,8.566A26.822,26.822,0,0,0,13.513,19a26.929,26.929,0,0,0,2.857,12.577,21.209,21.209,0,0,0,7.888,8.566A22.056,22.056,0,0,0,35.952,43.209ZM4.544,50.959V-45.312h9.52V2.709l-1.9,15.367,1.9,15.755V50.964Zm79.546,0V-45.312h9.515V50.959Zm57.791,1.362a32.235,32.235,0,0,1-16.791-4.49,33.293,33.293,0,0,1-16.383-29.1A32.255,32.255,0,0,1,113.126,2.01a33.092,33.092,0,0,1,11.964-11.9,32.617,32.617,0,0,1,16.791-4.418,32.908,32.908,0,0,1,16.837,4.352,32.677,32.677,0,0,1,16.347,28.684A33.163,33.163,0,0,1,170.647,35.8a33.633,33.633,0,0,1-11.9,12.036A32.143,32.143,0,0,1,141.882,52.321Zm0-9.245a23.01,23.01,0,0,0,12.036-3.128,22.551,22.551,0,0,0,8.3-8.7,25.567,25.567,0,0,0,3.061-12.51,24.424,24.424,0,0,0-3.061-12.306A22.653,22.653,0,0,0,141.882-5.2a23.107,23.107,0,0,0-11.964,3.128,22.291,22.291,0,0,0-8.3,8.5,24.862,24.862,0,0,0-2.99,12.306,25.924,25.924,0,0,0,2.99,12.577,22.031,22.031,0,0,0,8.3,8.643A23.107,23.107,0,0,0,141.882,43.076ZM217.9,52.321A30.332,30.332,0,0,1,201.719,47.9,32.337,32.337,0,0,1,190.3,36a33.735,33.735,0,0,1-4.214-16.837A34.393,34.393,0,0,1,190.3,2.1,32.367,32.367,0,0,1,201.647-9.863a29.985,29.985,0,0,1,16.112-4.418,28.663,28.663,0,0,1,13.123,2.924,25.317,25.317,0,0,1,9.449,8.163,25.056,25.056,0,0,1,4.352,12.168v19.99a27.042,27.042,0,0,1-4.418,12.245,24.689,24.689,0,0,1-9.316,8.225,28.245,28.245,0,0,1-13.056,2.888Zm1.495-9.112a20.5,20.5,0,0,0,16.046-6.663A25.26,25.26,0,0,0,241.428,19,28.362,28.362,0,0,0,238.709,6.29a20.3,20.3,0,0,0-7.75-8.566,22.057,22.057,0,0,0-11.694-3.061A23.01,23.01,0,0,0,207.229-2.21,22.184,22.184,0,0,0,199,6.423,25.924,25.924,0,0,0,196.015,19,25.51,25.51,0,0,0,199,31.51a22.158,22.158,0,0,0,8.3,8.566,23.372,23.372,0,0,0,12.092,3.133ZM240.882,77.9V34.535l1.9-15.638-1.9-15.5V-12.929h9.653V77.888Zm75.327-26.944V13.423A19.046,19.046,0,0,0,311.245-.24a17.24,17.24,0,0,0-13.123-5.214,19.143,19.143,0,0,0-9.791,2.449,18.071,18.071,0,0,0-6.663,6.663,18.877,18.877,0,0,0-2.449,9.653l-4.352-2.449a24.568,24.568,0,0,1,12.582-21.893A26.5,26.5,0,0,1,300.714-14.3a25.424,25.424,0,0,1,13.056,3.332,23.434,23.434,0,0,1,8.908,9.184,27.909,27.909,0,0,1,3.194,13.6V50.979Zm-46.505,0V-45.312h9.515V50.959Zm102.934,1.362a32.235,32.235,0,0,1-16.791-4.49,33.293,33.293,0,0,1-16.383-29.1A32.255,32.255,0,0,1,343.883,2.01a33.092,33.092,0,0,1,11.969-11.9,32.618,32.618,0,0,1,16.791-4.418A32.908,32.908,0,0,1,389.48-9.955,32.75,32.75,0,0,1,405.8,18.734,33.164,33.164,0,0,1,401.378,35.8a33.633,33.633,0,0,1-11.9,12.036,32.143,32.143,0,0,1-16.842,4.485Zm0-9.245a23.01,23.01,0,0,0,12.036-3.128,22.551,22.551,0,0,0,8.3-8.7,25.567,25.567,0,0,0,3.061-12.51A24.424,24.424,0,0,0,392.97,6.428,22.653,22.653,0,0,0,372.638-5.2a23.107,23.107,0,0,0-11.964,3.128,22.291,22.291,0,0,0-8.3,8.5,24.862,24.862,0,0,0-2.99,12.306,25.923,25.923,0,0,0,2.99,12.577,22.031,22.031,0,0,0,8.3,8.643A23.107,23.107,0,0,0,372.638,43.076ZM446.2,52.321a26.816,26.816,0,0,1-13.867-3.6,25.684,25.684,0,0,1-9.587-9.857,29.811,29.811,0,0,1-3.469-14.684V-12.944h9.653V23.79a23.153,23.153,0,0,0,2.107,10.2,16.035,16.035,0,0,0,6.051,6.8,16.918,16.918,0,0,0,9.112,2.449,16.112,16.112,0,0,0,12.709-5.332A20.567,20.567,0,0,0,463.6,23.77V-12.965h9.52V24.158a30.8,30.8,0,0,1-3.4,14.684,24.49,24.49,0,0,1-9.52,9.929A27.485,27.485,0,0,1,446.2,52.321Zm64.317,0a34.357,34.357,0,0,1-9.929-1.429,32.072,32.072,0,0,1-8.633-4.01,29.929,29.929,0,0,1-6.73-6.122l6.122-6.255a24.658,24.658,0,0,0,8.633,6.867A25.347,25.347,0,0,0,510.8,43.617a17.612,17.612,0,0,0,9.995-2.449,7.776,7.776,0,0,0,3.6-6.8,8.163,8.163,0,0,0-2.582-6.393,18.8,18.8,0,0,0-6.6-3.673q-4.01-1.362-8.5-2.653a53.928,53.928,0,0,1-8.566-3.265,17.03,17.03,0,0,1-6.582-5.495,15.6,15.6,0,0,1-2.515-9.245,16.74,16.74,0,0,1,2.653-9.449,17.475,17.475,0,0,1,7.617-6.255,28.362,28.362,0,0,1,11.76-2.245,31.959,31.959,0,0,1,13.056,2.582,22.163,22.163,0,0,1,9.383,7.612L527.4,2.01a18.938,18.938,0,0,0-7.143-5.643A22.664,22.664,0,0,0,510.67-5.6a15.434,15.434,0,0,0-9.316,2.378,7.372,7.372,0,0,0-3.194,6.189,7.056,7.056,0,0,0,2.582,5.781,20.055,20.055,0,0,0,6.6,3.4q4.01,1.291,8.5,2.582a46.842,46.842,0,0,1,8.566,3.4,17.929,17.929,0,0,1,6.6,5.709,16.7,16.7,0,0,1,2.515,9.725,16.8,16.8,0,0,1-6.189,13.663,25.618,25.618,0,0,1-16.806,5.1Zm67.582,0a34.184,34.184,0,0,1-17.271-4.352A32.1,32.1,0,0,1,548.8,36a33.505,33.505,0,0,1-4.418-17.133,33.276,33.276,0,0,1,4.352-16.929,32.041,32.041,0,0,1,11.832-11.9,32.653,32.653,0,0,1,16.725-4.352,29.959,29.959,0,0,1,15.434,3.944A28.311,28.311,0,0,1,603.328.581a32.724,32.724,0,0,1,3.877,16.112q0,1.087-.138,2.515a29.586,29.586,0,0,1-.546,3.332H551.18V14.377h50.174l-3.4,2.99A26.088,26.088,0,0,0,595.578,5.2a18.424,18.424,0,0,0-7.209-7.888,21.847,21.847,0,0,0-11.352-2.786,23.724,23.724,0,0,0-12.1,2.99,21.128,21.128,0,0,0-8.092,8.362A26.21,26.21,0,0,0,553.9,18.591a26.418,26.418,0,0,0,3.061,12.918,21.975,21.975,0,0,0,8.566,8.7,25.3,25.3,0,0,0,12.714,3.128,26.877,26.877,0,0,0,10.74-2.107,21.383,21.383,0,0,0,8.3-6.321l6.122,6.255a30.47,30.47,0,0,1-11.082,8.225A34.664,34.664,0,0,1,578.1,52.321Z" transform="translate(-4.544 45.312)" fill="#010101"/>
      <path id="Path_118" data-name="Path 118" d="M10,28.665V-22.427h5.352V28.665ZM.9-2.467V-7.284H24.37v4.816ZM47.023,29.426a19.225,19.225,0,0,1-9.694-2.449,18.056,18.056,0,0,1-6.77-6.73,18.847,18.847,0,0,1-2.485-9.638,18.72,18.72,0,0,1,2.449-9.52,18.026,18.026,0,0,1,6.633-6.694,18.367,18.367,0,0,1,9.408-2.449,16.837,16.837,0,0,1,8.674,2.219A15.924,15.924,0,0,1,61.2.323,18.408,18.408,0,0,1,63.38,9.385q0,.612-.077,1.413A16.63,16.63,0,0,1,63,12.67H31.875V8.079H60.084L58.171,9.762a14.673,14.673,0,0,0-1.337-6.847,10.362,10.362,0,0,0-4.056-4.439A12.291,12.291,0,0,0,46.41-3.1,13.347,13.347,0,0,0,39.6-1.416a11.883,11.883,0,0,0-4.551,4.7,14.745,14.745,0,0,0-1.643,7.143A14.862,14.862,0,0,0,35.13,17.7a12.362,12.362,0,0,0,4.816,4.893,14.23,14.23,0,0,0,7.143,1.76,15.117,15.117,0,0,0,6.041-1.184,12.026,12.026,0,0,0,4.663-3.571l3.444,3.52A17.138,17.138,0,0,1,55,27.742a19.5,19.5,0,0,1-7.98,1.689Zm40.919,0a18.4,18.4,0,0,1-16.25-9.255,18.7,18.7,0,0,1-2.485-9.561,18.5,18.5,0,0,1,2.485-9.52,18.225,18.225,0,0,1,6.73-6.694,19.625,19.625,0,0,1,17.092-.918,16.862,16.862,0,0,1,5.964,4.286l-3.52,3.571A12.321,12.321,0,0,0,93.518-1.84a14.082,14.082,0,0,0-5.582-1.107,13.148,13.148,0,0,0-6.806,1.76,12.541,12.541,0,0,0-4.663,4.781,14.143,14.143,0,0,0-1.684,7,14.423,14.423,0,0,0,1.684,7,12.393,12.393,0,0,0,4.663,4.857,13.148,13.148,0,0,0,6.806,1.76A14.286,14.286,0,0,0,93.594,23.1a12.321,12.321,0,0,0,4.439-3.173L101.6,23.5a17.087,17.087,0,0,1-6.082,4.362,19.056,19.056,0,0,1-7.582,1.566Zm47.347-.765V7.548A10.714,10.714,0,0,0,132.5-.141a9.694,9.694,0,0,0-7.383-2.944,10.77,10.77,0,0,0-5.505,1.378,10.163,10.163,0,0,0-3.75,3.75,10.618,10.618,0,0,0-1.378,5.429l-2.449-1.378A13.824,13.824,0,0,1,119.11-6.217a14.9,14.9,0,0,1,7.459-1.837,14.286,14.286,0,0,1,7.342,1.872,13.184,13.184,0,0,1,5.01,5.163,15.7,15.7,0,0,1,1.8,7.653V28.665Zm-26.158,0V-25.488h5.352V28.665Zm67.766,0V7.548a10.714,10.714,0,0,0-2.791-7.689A9.694,9.694,0,0,0,166.717-3.1a10.77,10.77,0,0,0-5.505,1.378,10.163,10.163,0,0,0-3.75,3.75,10.618,10.618,0,0,0-1.378,5.429l-2.449-1.378a13.824,13.824,0,0,1,7.077-12.311,14.9,14.9,0,0,1,7.459-1.837,13.663,13.663,0,0,1,7.342,1.99,13.868,13.868,0,0,1,5.01,5.352,15.342,15.342,0,0,1,1.8,7.342V28.645Zm-26.158,0V-7.284h5.352V28.665Zm57.9.765A18.133,18.133,0,0,1,199.2,26.9a18.721,18.721,0,0,1-9.214-16.367,18.143,18.143,0,0,1,2.485-9.408A18.612,18.612,0,0,1,199.2-5.57a18.367,18.367,0,0,1,9.444-2.485,18.51,18.51,0,0,1,9.485,2.449A18.421,18.421,0,0,1,227.3,10.533a18.638,18.638,0,0,1-2.485,9.6,18.918,18.918,0,0,1-6.694,6.77,18.077,18.077,0,0,1-9.485,2.531Zm0-5.2a12.944,12.944,0,0,0,6.77-1.76,12.684,12.684,0,0,0,4.663-4.893,14.382,14.382,0,0,0,1.719-7.036,13.74,13.74,0,0,0-1.719-6.924,12.737,12.737,0,0,0-11.434-6.541,13,13,0,0,0-6.73,1.76,12.541,12.541,0,0,0-4.663,4.781,13.985,13.985,0,0,0-1.684,6.924,14.582,14.582,0,0,0,1.684,7.077,12.393,12.393,0,0,0,4.663,4.857,13,13,0,0,0,6.73,1.755Zm27.153,4.439V-25.488h5.352V28.665Zm32.505.765a18.133,18.133,0,0,1-9.444-2.526,18.721,18.721,0,0,1-9.214-16.367,18.143,18.143,0,0,1,2.485-9.408,18.612,18.612,0,0,1,6.73-6.694A18.367,18.367,0,0,1,268.3-8.049,18.51,18.51,0,0,1,277.784-5.6a18.421,18.421,0,0,1,9.179,16.138,18.638,18.638,0,0,1-2.485,9.6,18.919,18.919,0,0,1-6.694,6.77,18.077,18.077,0,0,1-9.485,2.526Zm0-5.2a12.944,12.944,0,0,0,6.77-1.76,12.684,12.684,0,0,0,4.663-4.893,14.382,14.382,0,0,0,1.719-7.036,13.74,13.74,0,0,0-1.719-6.924A12.736,12.736,0,0,0,268.3-2.922a13,13,0,0,0-6.73,1.76,12.541,12.541,0,0,0-4.663,4.781,13.985,13.985,0,0,0-1.684,6.924,14.581,14.581,0,0,0,1.684,7.077,12.393,12.393,0,0,0,4.663,4.857,13,13,0,0,0,6.73,1.75Zm41.99,20.347a22.189,22.189,0,0,1-9.694-2.041,17.414,17.414,0,0,1-6.837-5.689l3.52-3.52a14.6,14.6,0,0,0,5.429,4.515,17.418,17.418,0,0,0,7.724,1.607,13.98,13.98,0,0,0,9.75-3.291,11.469,11.469,0,0,0,3.633-8.949V18.262l1.071-8.163-1.071-8.107V-7.284h5.352v34.5a17.174,17.174,0,0,1-2.372,9.1,16.24,16.24,0,0,1-6.633,6.082,21.429,21.429,0,0,1-9.867,2.179Zm.383-16.291a17.013,17.013,0,0,1-15.219-8.873,18.877,18.877,0,0,1-2.3-9.332A18.924,18.924,0,0,1,295.412.793a16.873,16.873,0,0,1,6.235-6.464,18.227,18.227,0,0,1,16.485-.77,13.49,13.49,0,0,1,5.352,4.551,15.035,15.035,0,0,1,2.485,6.924V15.206a14.7,14.7,0,0,1-2.526,6.847,14.164,14.164,0,0,1-5.352,4.592,16.362,16.362,0,0,1-7.413,1.638Zm.995-5.1a12.883,12.883,0,0,0,6.541-1.607,11.225,11.225,0,0,0,4.362-4.551,14.52,14.52,0,0,0,1.566-6.924A14.128,14.128,0,0,0,322.57,3.3a11.734,11.734,0,0,0-4.4-4.592A12.627,12.627,0,0,0,311.6-2.978,13.266,13.266,0,0,0,304.9-1.294,12.025,12.025,0,0,0,300.31,3.3a13.592,13.592,0,0,0-1.643,6.806,13.612,13.612,0,0,0,1.684,6.806,11.949,11.949,0,0,0,4.592,4.628,13.434,13.434,0,0,0,6.73,1.622Zm28.3,5.505V-7.284H345.4V28.665Zm2.679-43.75a3.48,3.48,0,0,1-2.6-1.107,3.668,3.668,0,0,1-1.071-2.638,3.633,3.633,0,0,1,1.071-2.679,3.541,3.541,0,0,1,2.6-1.071,3.6,3.6,0,0,1,2.714,1.071,3.7,3.7,0,0,1,1.02,2.679,3.74,3.74,0,0,1-1.02,2.638,3.536,3.536,0,0,1-2.714,1.082Zm30.194,44.49a19.23,19.23,0,0,1-9.694-2.449,18.056,18.056,0,0,1-6.771-6.73,18.848,18.848,0,0,1-2.485-9.638,18.72,18.72,0,0,1,2.449-9.52A18.026,18.026,0,0,1,362.974-5.6a18.367,18.367,0,0,1,9.408-2.449,16.837,16.837,0,0,1,8.673,2.219A15.924,15.924,0,0,1,387.02.329,18.409,18.409,0,0,1,389.2,9.39q0,.612-.077,1.413a16.626,16.626,0,0,1-.306,1.872H357.693V8.084h28.225L384,9.767a14.674,14.674,0,0,0-1.337-6.847,10.362,10.362,0,0,0-4.056-4.439,12.291,12.291,0,0,0-6.388-1.566A13.347,13.347,0,0,0,365.418-1.4a11.883,11.883,0,0,0-4.551,4.7,14.744,14.744,0,0,0-1.643,7.143,14.862,14.862,0,0,0,1.719,7.265,12.363,12.363,0,0,0,4.816,4.893,14.23,14.23,0,0,0,7.143,1.76,15.117,15.117,0,0,0,6.061-1.168,12.025,12.025,0,0,0,4.663-3.571l3.444,3.52a17.138,17.138,0,0,1-6.235,4.628,19.5,19.5,0,0,1-7.995,1.658Zm35.567,0a19.327,19.327,0,0,1-5.582-.8,18.042,18.042,0,0,1-4.857-2.255,16.837,16.837,0,0,1-3.77-3.454l3.444-3.52a13.868,13.868,0,0,0,4.857,3.862,14.255,14.255,0,0,0,6.082,1.26,9.908,9.908,0,0,0,5.612-1.378,4.373,4.373,0,0,0,2.041-3.827,4.592,4.592,0,0,0-1.454-3.571,10.577,10.577,0,0,0-3.709-2.041q-2.255-.765-4.781-1.49a30.332,30.332,0,0,1-4.816-1.837,9.582,9.582,0,0,1-3.709-3.1,8.775,8.775,0,0,1-1.413-5.2,9.418,9.418,0,0,1,1.49-5.316,9.827,9.827,0,0,1,4.286-3.52,15.954,15.954,0,0,1,6.633-1.26A17.975,17.975,0,0,1,416.1-6.559a12.469,12.469,0,0,1,5.275,4.286L417.933,1.17A10.653,10.653,0,0,0,413.918-2a12.755,12.755,0,0,0-5.393-1.107,8.674,8.674,0,0,0-5.24,1.337,4.148,4.148,0,0,0-1.8,3.48,3.969,3.969,0,0,0,1.454,3.25,11.28,11.28,0,0,0,3.709,1.913q2.255.724,4.781,1.454a26.354,26.354,0,0,1,4.816,1.913,10.087,10.087,0,0,1,3.709,3.214,9.4,9.4,0,0,1,1.413,5.469,9.449,9.449,0,0,1-3.48,7.689,14.408,14.408,0,0,1-9.464,2.821Z" transform="translate(-0.145 188.713)" fill="#010101" opacity="0.999"/>
    </g>
  </g>
</svg>
